<mxfile host="Electron" modified="2024-02-15T05:54:54.894Z" agent="Mozilla/5.0 (Windows NT 10.0; Win64; x64) AppleWebKit/537.36 (KHTML, like Gecko) draw.io/21.2.8 Chrome/112.0.5615.165 Electron/24.2.0 Safari/537.36" etag="MUIQH19SGeYRw5btvlHt" version="21.2.8" type="device">
  <diagram name="Page-1" id="2XWkQP5S-hDbL94sL5Vg">
    <mxGraphModel dx="2058" dy="1180" grid="1" gridSize="10" guides="1" tooltips="1" connect="1" arrows="1" fold="1" page="1" pageScale="1" pageWidth="3300" pageHeight="4681" background="#999999" math="0" shadow="0">
      <root>
        <mxCell id="0" />
        <mxCell id="1" parent="0" />
        <mxCell id="APLwThIm-aDqV8bCMrbt-1" value="JavaScript Modules" style="rounded=0;whiteSpace=wrap;html=1;fontSize=25;fillColor=#dae8fc;strokeColor=#6c8ebf;" parent="1" vertex="1">
          <mxGeometry x="1190" y="260" width="860" height="60" as="geometry" />
        </mxCell>
        <mxCell id="AgI4lJf8-Eyjv56uBOGG-1" value="JavaScript" style="rounded=0;whiteSpace=wrap;html=1;fontSize=43;fillColor=#f8cecc;strokeColor=#b85450;" parent="1" vertex="1">
          <mxGeometry x="1190" y="380" width="440" height="230" as="geometry" />
        </mxCell>
        <mxCell id="AgI4lJf8-Eyjv56uBOGG-2" value="QML" style="rounded=0;whiteSpace=wrap;html=1;fontSize=43;fillColor=#d5e8d4;strokeColor=#82b366;" parent="1" vertex="1">
          <mxGeometry x="1630" y="380" width="420" height="230" as="geometry" />
        </mxCell>
        <mxCell id="ixXHwqC5Fp8fQsoGZv1m-1" value="Modules" style="rounded=0;whiteSpace=wrap;html=1;fontSize=43;fillColor=#ffe6cc;strokeColor=#d79b00;" parent="1" vertex="1">
          <mxGeometry x="1060" y="790" width="570" height="350" as="geometry" />
        </mxCell>
        <mxCell id="r3aIkr85fWJD5ZqDTBnq-1" value="" style="shape=image;verticalLabelPosition=bottom;labelBackgroundColor=default;verticalAlign=top;aspect=fixed;imageAspect=0;image=data:image/png,iVBORw0KGgoAAAANSUhEUgAAAjsAAAFgCAYAAABdd7jyAAAAAXNSR0IArs4c6QAAAARnQU1BAACxjwv8YQUAAAAJcEhZcwAADsMAAA7DAcdvqGQAAGm8SURBVHhe7b0PbBRXnu/7nYtXw4PMYxg3NHYCGGYXE4K5CwaSGWyGWMljEyIwSYhN5r53keZyif0yQXd4kRI0jwBaQfTmkavsRDYIZcXdVRIISfjz8mciWIaAmUkghr2YZGx2F8g/Ow3teJDChEjs7ju/qlPt6u6q7urqbruq+X6khq5yn6o6f+qc7/md3znnO4vubvh3EEIIIYSUKN9Z1HAPxU4R+ao/rr8RQgghZDj4D/p/QgghhJCShGKHEEIIISUNxQ4hhBBCShqKHUIIIYSUNBQ7hBBCCClpKHYIIYQQUtJQ7BBCCCGkpKHYIYQQQkhJQ7FDCCGEkJKGYocQMqREa+7BmpZmzNTHhBBSbEZUTZm6UX8nReCbb/6kv/lhFh7+ZQsa7yjD+Q8v4Jo+mx2/4Ug+zHzkcfyX5fdjxoSv0PlRTJ8tJBOwqOX/wqN/NQEDx87hsj4bJqJ3P46f3Tsdo77pRs9nF3C5YIVzgkr/VVg+/lN0XvpanyN2il4+a5qx/r8+jPqFi5I+0YGj+DiMhdUBKb9r/9P9JRWnmwWKnSKTj9iJ3r0C9076E3730m58lEOj4DecN1SjcvcDWH7fw1j8V2ZlNmNCGb6NF7LhCiHRe7D8f1ONuPo6Cv1FEplTMfevbkd5fzc6fF7frKynDotYmvnIRqycrVLn/Bt45X/8HhcLmkBfY/wd92P27LlFb4isBi+5UZ+p3oP/NbjvwRCUz+gdizBnktzBTjdOvFb8shaNzsK8JSuwWIm5xTpPRNR9rkRdIeM5Zf79qC6Po+f4SVwKYj4TV0IzjBWN1qChqRUbNmzAhqYafbaEUZVT44IIcP4YjubSCfMbzgNR1XNb88vHsHTBdJSX65OK8ml1WLr6Jh+WiJ1DT798ieN89zkUw66D6HgYyd5/2ef1J+D26aps9MdxRZ8ZKkToLJ2mbn1iO3a8erYo6XPu1e34ncqDacuKWxbHjVNpmEZEvwcbsebuCfpcgBiC8hn77QvY8tcb9cfMi+KXNbHoPY6frX4QP56m8kCfFcqnPYiftdyDqD7OnwmIGDeII16UF5wUk8BbdmqaNuCxh36CuXNvx6SI7jWonu17H4XDhujXsjNzyf+B2eXdONj+Dzn1ivyGy4Y5/DDJ6BkaPfM39uA37xzF8WPdGBhRhepJk1CtelLHizJ8Ewa+xqUPJT1O4uMiDaNEVa9ygeo5n+/Y49NyoS1Dn3+I3wxhPknZMSw6InR++6U+WwxUHnw7AfXTpyMyortIw1kTMGPhXEwcFcfvdv4/+HvjHVCfHvUefE+9B+WjMGrSXMwo2v39UvzymcxQlDUZ1n0M90yUWkmJuAN/h/2vvYnfSH5IvTRB5cfE6ZhcqLyI3oXFdaoOVB3J12/aei68BN6yc/noPuzbpz8dcX22xKlp1r3gozinT3nCb7hsWNYio0LZaPbME+/6lzinenQvHujAi+o8KR6mRUH1Kv2q2JoZUMUD5/8whPlklZ3+DuwvqtDRdB01LArl02cWsEdvZ7zZu1cdrj/Y27uYeg9eVe/BCbOOKl+w6Oa2dA5BWZv5yGP4sZEXqu756xfwWteXNouV5MdrOHjijcKVu/Gm5aj/Sjg62iSZ7yxquOff9ffgU9OEDcurgZ592LynS58MNl/15yrQzN7Kj6Fe4PbDOZib/YbLhr6uestF6LyWa7JHJ2DmTx7GAruJWTUUv+s4iqOqckpH36//DWxR4klm7tTX1WGaDtyvwp54YzfOJUXQesZuHPxr9Td9Ng3V8K5ZXYfy8+a17RiWqwVQvfUXzOG/6Cw8/OBCdV89ZKHue9B+X3HGXDZdH9iQitdT+ov5PTld+s934MR7h3FuvFw7MvgsBqlxFN+pRVggQ4r6F2Jx2580RKTi0GKLQ0aypJ1PzOErsYLY45IZ8b+4/ScLUZ2SNvtf9Vau0/KykGQoQyZWPrnF2We+6/fBCJ813xV5l08VVXWNxjr7kLXq7Jw4huO/zT4MWdQ8EBLx81tuc80HK04Rl3rQynd1HcOCCZc6Sd23Zrz6/zLOJdV/MqnkQUxLK1e5PGf+9aCfdAkLnHoeNGoWGS/M+Y4cBYvfcNnQ15VK8niOQsfw8Vn9mGrsBl8cg/Lp+PGyx5x9G6IzUa1+3K960ItkLH7ZoNARylXYpasfx6KkbvuX+EO3iMoIIq7deVURPKhecKkcHRqphNVEJZ5UautXq4rHLhLkGWwJG404C4h+L/4QUtmI71NKuli+Tw/fLpV4ql+AZVGI44oV3tbgCeKj0GhPU/Hx8SR0FMXwrVDPucDo3nv1H5OKVuW5o/9FHX72y9R8dyYW12VB2pRCk7V3/yXihm+Mw/0z5vvjzvluvQ9yP6/5rsirfBoieaN69+xCR4hg2gJvfjD296kYzDTSSjpgPoSOn3xQuFtWJb1MoXP+QJahWlWfLl32IJbWJVseo3erTon6P8kSlvNz5lkP+kyXsBCu2Vjqxf/J7arAlazPjnpp/ms9ysXk/1aOU819hcvOzEUPG5Xt+UN/i1O5JLkSOmtVZZnw8WnfkxhLPz/iFsyZFMGoSVUY0ZMyq2HqfCyerv5WPgkTy/+kKg/bOHzPV4hW3Y7yUaMw8XvJ/kHXvjcV9dMnYdR1l/H5mgfw6OyI6nW9hnfS/q79ML7pRse38w3fpDS/pIFLOHd5MNy1SydNXw3rMyC+IhF8fubNLP40Kq/+22JMVN+kx3T4jb/F69rv47y6xuTp01W85Y8pM66iNaivnaTK0yhMl962WJpeekGHFf+EuUY+jbr+6WC6XLuAzsQzqrRbKDO5VM/+ub/VeWH7FGN2juFj9Cf87o3/z8PMFbNX6up/ocpMRPzCqjwsp/AdlZ8qrUapNCq034z1PmTK5++Mn2nMSurvsc8KG8x36TgcfCk136W8y99S8l2/D9+MrsLcRL6/psK+aaaLU74r8iqfYmEYJVac32D/u9Y7oD7q/Ruh3r+J6t28JeOMt1lYuFyVNSVyi+Pboq/va6aXz3yw6ohRn+LMO7Z7ikCQ60l6qTIrQ2kmt6Bqnunb1ZOY+ajK+EN/pc6pr9+o6ySuPwHz7luo6h97/e3vOf3Xg37TJTzQshMgTHUfV41DbtYZv+GyMwvTpbuhKpXunKw66sXRJvSEj49xJHyJ2G93a9+GCKpnuPRIpVFOHYePncVrb3TA6DiXj0/uXXZ9jPPqv/JxTt15/Tzqms7j99pqguloXCZmaj1jKHHjL1NMzumYz+3U60tm5iOqIVH/i5ja8erhpOG4WNdu7DjQbXxP7YFHZ5i9ecNSc2I7trSrHq39+d7T6eJG3jO5csWa+ZXi2+JC9O6HExZER/8LVWZ27HwDBwtexnPBmo2T+X1wmq1l5Ttk6KDdPd9T88d6H5Lz3SqLHvJdk1v5VIJqp8oDGa6yP4x6/47q9688kmHGmS5rRfNt0f5AOP9xzlYdv/lgWdiS7ilCR4aDpO6V9MpSR5jXUKLovKr7VH6O06cT1jvbO+/7OX3Wg77vFyIodoKCenGCNtU8QY5DHJZJVsau3Xx8Yh93m5VmyktpmYpdhVvsskvlftkcPkgVQYqEidhtiM8SAqoC6j/godJKw2PDrvLKGNaRysZhKM1Ofzz5GawG1BCPGczkrg2MHn4ZOudka9jNS+U4C/WGA7xqZDP5k6jG1l4JDz22oUTzRAZswsKW79mc+FPzZzDfMw+PZBYWXoWn1bmRoeKNWP9Lh4/RuGfBGupLKcOFwhKA6XFWjXnaM9uWIcgjH1KHL2WI3kwLN9+sdGb+RP1e5UF3SuExzqvr9Hys0yuf5/RTD+Z1v/BAsRMQzALvMI6aBb/hPGGJgByxBEvi5fVMPutYaF+J8um4PWkw3BKDb7gKr0RFlkGcZcZbw25ZZzL5TTj3wLNbFBLXdmlgTB+H7D37gpFL794qZz566kOK9ZwZ89kSDINluDD57pyv2fLdxKPwtCwmeWKWtVytwbmTFmen+spWpvzng3XevKf49Ik/k3nCm+XSKhdy72Sto8uLrbOaz3P6qQfzu194oNgJAqqXEKip5nnhUbA4OnrqSjlTo5ehwTn3BzG12h1DMzslW1hCIHdxpvE4zTa7CNQ98LS0y25RsK7tXBnlIyLzw1Pv3rEs5EGxLAtentNhiGX48l3jsXxaDbpYDwcXB3T+uFuZdFkrhsN7CmlDabHD2GE9405zuM2eV/7zYTBsed1GY0aWDEMflKH48jrUO65xazmqm5hWlW6cUOlmOtBrHPImn+cUcq0H871fWKDYGXZUQaxzHkfNjN9wOWANGdnHlwuCfnZFUoOkX/xMjYlpyXKpuC/Hk/0J9EyyzGIwfyFQsF6P5ReQ2lBktShki4MHEVlotDAYDoplWcguim2+ajmZ+11EjSWcfOe7Sa7lM6M/TlasuGSxIuWBJRac/VI0vgSvm7i0rHXqmurv1irg5357zPCPmVaXbXaaFgtJ75/MmBqsw3Ob6ZpFBPuqBzOR5X4hgWJnmLEcM3OdMu43XG6cRbe8zZiOBa5L4E9IedGtHs10THfZ1cPujGp/ya2epWsFpS1Zrg2ZXhLfXFDOqxjM/0VO9K49ZUS6U7ZBdJbufSlSGgrLzOzegGaJg5N5v9ikVriZsH6baSE+lT6ZGxQL3TAVvGLOJixUeWsZdPJMHw51mIpuINPtdbjUfLcsLX7zXeO1fCZERIYFGaM1qe97Ch46LHmjywumLXRdisBd8OaeD4Pvj/jn2K1aZ3E8o3VHY4gNFfa9lHwcn+6YPIiP57TwVQ/mcT8DJfRbTD+pQG6XoqDYGVa0Y2YmfxJH/IbLHWu2R/mCx7DmkeQGx9orK3XdDdOMKnsUPY6HVeWYQBp0WUdFnl0qjhQnZLNSlnDywtjvZa6/Yi2S5r62hjVeHcHtXsVgVqtJNqxGMFkQRmtmYWZKRWyli5GWKn4zVc9OFtCTNFkja8uYNWpa45ZorNzaD6uByTDmbiCNgy0/zHvfM/wr/Sb2bZqOpS3NRrokkEUpJe9V+qSuJeOINSxQ8E6Ai7CQ57vbfA8sAZ/q5HnliikijD27bGVCFsyU9VlMAa+CpgiEwuS79/JpzeSRxlve6aRntd7dZY9lbtg10tAmwksa2euBfIkdxgnjQSP4saz/knRt9U6pesl0uE3OK7/5kLASnXgtzRE55sG6M12El4NvT0SdN6bPp4gQ38+ZILd6MP/7KXEpgsgoZ2beu6XFcBLoFZRlXyxZMDkrAV5ROdMKyoajm49VRv2G84t5P1OIpOM8G8Ha+NEZpzDSM1YNhvpbv6rEkhczGyTb/kpJz6rEoPMqtzZUxSgiKtt1M+GWPk4rrbqli7FK6RXV2Kflq06XDKuiWvd3XtlVsK6hD1NwD5cPVn6qxj/TDCuLqDWN1xlJn+wrKMtsHFXpiuDwcs9cyPJ8gvsz6ufSR0moRvBgd6RI+W6SS/m03gc3HFdrTsIlrgXPk8xlWkh/p/3kQ/Z0tv6eej/7u54U1p7GjnWUv+e0k5TnWevBfO+Xkhde6t1hgJad4SLhHR/AqeYpGLsZ73wD55OEmxIlqlDLmihOz3Hu1Y148UA3+o0eu0aFP3/CLYzVcz6GHe3bcfC8NlVrpCE5mGRCdsaa0i4mbC8z1LIOnXkg9tvXjOcdxIyn0zi8mS4dxlob/ZIeRrzEB+AcIkVzUv0SR1Wa/i7pGdUlpSJTaVp4oSO4zApxw3AuTc93qWx/Z6x7lL2hzLrEQD64+SCpfEmUTddnPIvX1PuTlP6S9ypeL7bv1vlajHw3yaV8omu3w7uuHiMRx2xbRUhcVfm2ZaKUs991ZLE65oxZptPqGBU397rCTz5kT2fLuuM+DOvuP+Y8ROnvOe3kVg/mez+VFx36flKnpA7XBYRw7Y0VQtwsO6bqVwUjx31d/IYLPLrnLAun+bWwGBTqOkOO7l0VwyoxXFjWkKHo6Vm95YD2KgkZUkJbDxYPWnaGA1Uxi3mzNKaaFwZv64VkIaoEgzSuWZ3xgkdiIcZsfjdhwvKtyOBIWgiMBd5E6Dj4yxBy0xHierCYUOwMORN8Thn3Gy4ceDXJJ2FzZBVnOnHyLc62GQVAelq/fBwPJzleKyzHT2N8Pd1ZMeyYDu7iSNpcFEdowzfBEjqlYhEjJBfCVA8OIxzGKjKpw1iW41iuTqF+w4WD7M6Y6Tg7KAY2fawhHX2YjrOjd0lQ04w1dXGcUJVv4bZ7GMz/7E6zhJQqIasHhxGKnSKTaTYWsfDjr5L8kosT5Ik3lFAKdIsn06gfxoJpNmdXcQTsPobjsumiPkW8Eb27GfXxo6pSp6me3KyEsR4cHih2igzFDiGEEDK80GeHEEIIISUNxQ4hhBBCShqKHUIIIYSUNBQ7hBBCCClpKHYIIYQQUtJQ7BBCCCGkpKHYIYQQQkhJQ7FDCCGEkJJmRNWUqRv1d1IEvvnmT/qbH2Rl4RY03lGG8x9ewDV9Njt+w5HhYOYjj+O/LL8fMyZ8hc6PuPRpKSDbu6z9T/cjOnAUH+ey31sAyat8yt5vS1ZgsQq/eOEi1KvPjAll+Pwj93qJ7wMpBlxBucjks4KyuR8Wct4zyW+4bMgmc/V10zGtXDatVMhWBx2vZVyuf+YjG42d2tNQYfv7jznuaWTtA5aM+v35bpx4z31/Jete7vvC6G0p0I2DOwu3pHpe+5bZ98ziZpZDjFUesnD+DWzJaTd1awn/4Ox3ZpbReA57z2nyKZ+Z9oPrV+9gu8Oz8H1IkKg73dLB2u1f6rOkfM29XDvXuRkIYd6EYBgripqmVrRu2IAN1qe1FU01SXtHlx7qpW+Uwnf+WG6Vpd9wWTBehmV1g0JHUN+nLXsM61vuSd7JO8EERBxrOoUKWz7tQfysJX03bHMH9FTk93VYunoj1tw9uMuvnXN/6Db+n3b7LOP/VGY+YlYA5w8Ucu+YCbh9ujxvjju2W8TOoadfvsgeWecodIaSmhnZGwRF/5VcM3a8We5Vg/6HQGSoLqOqg3FFn/GM7/KpBN+DpmiRjVpf/OuN2KI/Lx7oVtc66iy6+D5obHWnqivH6a+DqPRVHU+D1HwtWrm20X85dHkTbMtOtAZNDy1HtVPbJ/Tsw+Y9wd7a1a9lx1T1uewCbuI3XEYSvS1VAR2wWXLERP3gg+YmdE69XyucQy9ArESNSjwZleGJ7djxW8s65NIrjk7AzJ88rOJmFobkMBbuPWqr5+IcLh90L+om74WWAnlZ6OxY5T5ni1Cx0GV0KJ8ncGkQNsw8K1ftR7mqz1Lrc7OsqnqwX3UC+zOnsd9yXbD3ISAE17ITbUDrGhE6cfR07MOOzZuxWX927OtRza6iejmaaoxflxY1zYb5sv+ES+/HDb/hshCdMV2LkpQhq9hZHG3fiIMnOnDwPYeXbbze3duhFxDrOowdqocnlI8bb/xv4tIrjn2Jc6++gBdPmOKxfMGiNIsQ8CX+0C1/j6B6hs36o9LFMNEqQbK/oEJHER3vGkcSLkyLok8LnR1d7vPqORcS3dM//4ehEx1WnTGU9xxSRMz9ciPW//JxLCrGIIOuV/q7u9Gv6rNI0j1moV46budVXad+lK2c+S3XBXsfAkKgLTvRhibc8dEeHHFqRWqasGF5deCtO7lbdrR1ArlaCvyGy07RegZOvb+sPUJ3641JqqXFGr8usLXLQo+be7YYJcbZU8jBMhSNzsLtP1mI6mlaTCr6zysh92rm8FF178Y61QhZgcRSd+IYjv823W8qkc6JXuMEzLx7ERYsMBsxQYYnnHyuhDT/LnWvbD5XFrk9Z6HItZyo9HjkYSxIyQOJ35UZmct98fNBxaVlYfKQsysp8fVdPr3es1D3G8RPebEsI4k6RL1TDz9oe37xKXpDPafjBayyYlJ4a7FCp8t51ZEsX1CHfltZMp89joMHgKXym4z1cq7l2sJvuOASaJ+d2BEXoSNcvqKKdAlSs8gYFjrf4e1FT+A3nAdicTOlp9W5+eY4k7VnYFl+7GTtFX+JuDGmr3o7doNQgrPoPq/+K5+O29XDJvnpGH8vLNGIWTn2x71VdtbvU+n35J8gDayq6FY/iB/bGllB/Jl+5trLlIZoI36mKsbBBkGIYNoC8ZtyyNfoTFSr3xr5YPRiH8NSWwMriM9Vo5P/lKqo0/y7Ej5Xj+PhGmefK1/PWSgsC935j7OXEys9HPJg6epm1Bs+XN3oTmuAhigfJC6ehI4ixd/Dd/nM5Z428nsf/JeXRN2kbiLiYb16p5LKq1zP7QGsslJEzHRRz/fxZUh1Vx6x8ldbdU4cBW43nZPTy5mNXMq1Hb/hAkx4p55PnY/7bo8g3n0Mpy4Gd3J1blPP1cv7X+sNH5f9b+U41dxXOI9cjmPEHXMxsXwS5twxASO+jePS5a/1H92YgBkLVZhRn+LMO+eQLl1Uj/Whv1J/F4G2JzE9d+aih43K/fMzb7pO2f3O+JmYM2kU+nucp/Ve/g8TVIMzCaOqZmK2uoH0vP7+g2zP64cJmHffQhWHbpx4zSmO6Vy7dBLHjx0d/AzIs0YyxtfE7OHfIwkmPdcDf4f9r72J3xjX6cbAiFsQmTQJ1VWpyw2osiE9tFHS2/0N9r+7B795R9+75ytVAdxu5OstqVOk1fu1WD3XN6OrMFd6zdLTfek1vP7Om+b9Jsw18mnU9U9xPGl6sJWv5jPuUM9oxrUb5wduwWSVLxOnV2FEz0lcSiqoPp+zUOj49ne/h85LmcqKes7/thgT5at63w6+9LcqTcznPK/ycvL06UaZFstAx3Dlw7UL6DTSXD5fIbrwdqNuePG5v9XlxfZJWZrCd/n0fM/k98T/+5BPedF10zcqj76dj5/dO8mwjr3yhnUNla4Dl3DOrY5Tcf12gohQVbeIVe2tfylwnWvVK1J3fgSoujcS/9AolzMfaVGd2m4c/rtLiFhxyLS8iOdynYLfcAEmpIsKRtFQX63+78FxV9NP+IjevRDTVEP2uzdys874DeedL3G0fTsOGmPE0/FjYwZWM2Zm7GZbvjepM0AmGEMcDxtDUepQVYjHEz0TawZC5t6K2SvLQNdR/E51h4yepqqM3E3MIiBk3D3752FH3zC3OHon0YPLWLFLHj+cSK8X//oFiO/UYF5/iXO/3Y0dO9/AwZQyYFq2VAO5U4URs779j+Jz9UZHSs/RxOpxG2moxOIWmSYcs9JR3e89M5wrqlE+nrQkgXreLvWMf63KkcPwo7/nzDf/BrHim81CZ1kKDYf89uQhOSN+B8THQpHiwzVs+WD10H36lHktn0nkcU+v9/Obnib6vcV0NC6T4cbt2CHDgIlrqHTNsJyGIP6DMrPMCKfPFY70esXwa4zegwUJn0zrN5nT2Gu5TsVvuCATSrFT07QGdSovevbtQSYLXqhQBTlIU83TMR2Et6gG9bxRi0zXQxLmX9Owpj+Wy/CKveF5TA9xqL9JLzVpXD4X8eBeISaEQbHJsyGRxtqcEpxtirJpujb8HTL5MahKPtnHYBamG5kgeWXPA9tH/KOM3yZjCUqjIcjgj5A+3KiHGVW+Nz4yC9E0QazKUVoE/D9nYbCWD8g2JGA2NobgNPxnnDGKcFK6DEc+aPSwsD9HYa/lMwXfDtre34e8yov13ioB2X/A7DgECv185lCeNWyvBN5PJE7dOCHlwPpNxjT2WK4dyOqCEEJCJ3aiDa0Qv+R4zz4EfNZ5TlgF+WCGStQJv+F8oxrU19rNtTJklsC0Zc5+IlbPIB1ZTLAbv1OVt9FL1WcNPIkHq6JTL6LTjxLir8Ow7mDaDIdZWxZisRpc/yPTx9EBMO9ZN956Z4l0yXX83ON6G+nYLWzODUFihp5Dz+/cq6YV0FhHyWiMlCi+Wwkf/fc0fD9nnvmXwJvITsQ5gz+JY494mPJBmGn4dfhttDyWzxSse/Z87PxM7ni8n+/01Fjv7YntWcrFMGE9n87TK1fEor7QZtXJnu8muXQe7WSpY0NKqHx2ROisMU06+H9DonQ8+ezUNOO/GE5nr+GdXMZH/YYrANcun8PnI8R3JoJR17vTxnWnzL/f8CWQmQI7XtNj6cbnJDo/POfs8+NlnLjmbjRKb+X8MbyetpS85U8hFpCD+OR78nyTEBmR/nyFIHrHIsN3KLt/gQs6LnafJUd8jp9bz5eeB+mf5OtOxdy/Ep8Ld38AM39Vg3Y81fdG+BqXPzqJ4z3dGLhu+hJNnHQ75iycieiIT/FxShz8P2eBiNagvnYSRn3+IX6TYXsCK87/+O4RhzgLzj5cw5cP2fzmsuC1fCaRxz093i/f8mL6BWbKx+HFjN+fEnl67XtTUT9blc/+Dryy96xRDjLnu8ZjuU7DCudYx4aXkFh2zFWUReiIRSfoCwnmxgRzJUxVkHNbA8ZvuMJhzdJKXidH8OZ7k0r2HqESM8vkN85mecufwpp5FfvY9J8on64aWflBgTFNvbmbiC28+ifki7PfQgasnrNrD9vK3yw9P1kbSXyJxLpiDH/KLJmHXdclyfk5C0XeFjqLzD3poc8H/Tw+Z9T4K59+rQm5389fefFYdocNa+jJ9nyX4zh/vhu/S8y01XHINtznt1wX7H0IFiEQO1E0tK7B8moldDp2oK2khI6KnfYvyXXKuN9w3tHOnxmmbyZM9mkvhZ8KL1slJM8z6Byaan6W6aPmgoo203TsME4Y09DrUF/wxSe1qddHpW6RGBfPloGqsjNEm+NCippo+jBRQoxmEHvRmglpf7Py1d3Pwy1/lRgVPx19lIQMf3bIIpLpSwb4fc5Ckduwi9uSB7IsgC6fKeJk6PNBYw1/+sRz+bTjaSjaGa/3y6+8+BdjJqqMa6d4t21r8sPh+VQ99tqru3E0UedZv8mcxn6HExP1esYhsvARbLEj20UooVMnqyjvU0KnhGZemWjHU4fGOzN+w+XCoKOpsX9V1P5i6/Ve5BmcXqasPVInXCoh2Sbi7mZjfZHEbKRU/yTLT8fBypVtvyzf5FGpm1jibjoW2CrNaM2s9Fluif2CpmNpal5I+qi8kHVC0ta86foYovXMPLwn6bqyMOEiycNlj6UJwazOiTp/U31XjFmBxn5n5lo6SdGQRdvEEumEz+csDN57+obvhGLasuSZiNbsQmPTRkWa+B/ifEhj2kIsUvlhYd5TPYc+diaH8mnD/8rJOdwvn/KS53trCFrjAur2xbAY6+fLmKfWbzJaXryX61SylruQEtwVlI3tIupUPyo7hsUnoEIo0wrK5kqYwdnV3AlpSK39qNKRtVRkNoM+1JjP576CrCNKsBgrJ+tDJ5xXCVaNqLHSp9uKymIREqHUXdiVQPUKp9nIlAZWOqXiGCZL+riuoJzlOdNX382eXpny1y1OCdT9RKzm/5x+seKnD90QUZ02880qaw70q/TqjmCp23s5xPlgkjmu2d7PnMqnxtybz+1dzExO9/NbXnQ4f6sep6SnukemPal8oZ8vUxo753s+5dqOVcYLXF8GgOBadsaP8yR0Qkti1lBQp5qbGPtRHejA+STRJkv/d5hrXDi8kL56BnqcOA11X/NeG7EjrTEfHDoQ0eWcHtZ+Wck9xnyxTL2ZyZwGsd++Zq5dlEAWSHvDtu6Qjdhhc40a9XvDyGOhZ7alp42ma7f2l0kW3YNpmtogZDfzZ8rf2G/N5Ql+l/Kc/ep6Mn3aUegIOT+nX3T8suHY8z+L13TcEljxat+t08ulJz3E+WBiro+V9LwKmQ0p93RrTC1yKp8G/q0JQk7381le8huiUenZYa2jpNLQaT/APDGfL3O94Zzv+ZRrG5blq4RWTrYI9q7nJYCbZSdQu5oTQgghJUzo1tkpCWqCtas5IYQQUspQ7Aw5E0I71ZwQQggJIxQ7Q0xwp5oTQgghpQl9dopMptlYhBBCCCk+tOwQQgghpKSh2CGEEEJISUOxQwghhJCShmKHEEIIISUNxQ4hhBBCShqKHUIIIYSUNBQ7hBBCCClpKHYIIYQQUtJQ7BBCCCGkpKHYIYQQQkhJQ7FDCCGEkJImBHtjRVHTsAj1ddWI6DOIx9HTfRxHj3QFflNM7o1FCCGEDC/BFjvRBjQ9VIfqhMpJJY6OHW04EmDFQ7FDCCGEDC8BFjtRNLSuQV0kjp6O4zj6URdilqiJ1igRtNwUQT37sHlPl3k+gFDsEEIIIcPLiKopUzfq7wHjGi5+2o2vOo/iyLnLuHZNnxauXcZHn47AHXMnYRT60X3qovp1MPnmmz/pb4QQQggZDoLtoByLocttiGr8uEEfHkIIIYQQF0I3GysaFYflJrQur1ZHcXS8fiTwTsqEEEIIGT5CMBtLEW1A65o6myUnjnjPcby+h7OxCCGEEJKZkK6zE0GkfAbuqInqY0IIIYQQZ8Jh2bEhw1jj71iE+unViESAeMcOtAV47jktO4QQQsjwEuDZWM5cu3YNly9+hFOnujHijrmYPr0KI7pP4WJAp2NxNhYhhBAyvIR4u4gYPuoWq0kE0+/gcBYhhBBCnAmw2ImioalB/etGFHdMN12W+69wPhYhhBBCnAms2Ik2PIS66jqs2dCKpppokuiJRmv06spy1IOPg7uAMiGEEEKGmUA7KEcbmvCQfQPQNOLo2deGAO8WQQdlQgghZJgJ/mwsseIsqsf06sig6InHEe8/jteP2vbLCigUO4QQQsjwErqp52GDYocQQggZXkI8G4sQQgghJDsUO4QQQggpaSh2CCGEEFLSUOwQQgghpKSh2CGEEEJISUOxQwghhJCShmKHEEIIISUNxQ4hhBBCShqKHUIIIYSUNBQ7hBBCCClpKHYIIYQQUtJQ7BBCCCGkpKHYIYSQMDL5Ljy39T4s1IeECFUrVuK5tdP0EbGg2CHEiYn1uKVlG8rbX0ZUf8pbmlGm/3wzMlKlh5kO9foMSSaClVtbsXvXSqycrE95wke4BffhuU1zUCnfc7oXuRmonH0PducleCJYuEKVMaNcWp9wC2uKHRJQdAOw9S5U6TNDxsRmlK9vwehZFUnipmzWUpRvXIeR+jiMlDWKYPERB5Umkh5CWfTWm1r0DTti0Vk9RQmdi2h7+h0c+0SfJ0Rxae8reOqtAUAJnudWRPTZ3Fi49hG0LlFlzHzlS4IQip0oGlo3YMMG9Wmq0ecIKRRVuOVnS43G/MbZdvS3PIqY/vTv6sT1f3wd180fhpAqjPxLVXvFvsANfcYzn72Pb2PypU+lwfu5hycFQnUCHhOLzgAOPKOEjj5bClRNnoaVa1eaVgQOwygiSnSsxHMJy4p0/lbiyQXZBYwInrYzQOWSe3O0MgoR3DrB/Na581U0r2rTn3CXt9CJnZqmNajzJ1YJyc7Eu/DdqPpfhE778aRG/cYH23B1/yV9FEYmYoTEzY/YwSV8vVFE37qQp0G4qVpxL5Ypvdr71iG8UiIWnYVrzYb82U33YNnssfrsTY4Sfk9ufQStKj2MoUqLirGoXf2IJzF47PnD6MRYLHvMp3W87zT2nojrg/ATKrETbWjF8mog3tGBHn2OlCo/wG3DYEItq51nWHWunz5unigl7pxvDF+VZNxuCqZhxRIlBlQj9Dd7S6cR+nT/YbTt1B8ZfrnZkWFKJfxqKwbQ+dZhPJWwrLThqZ0X0Su/mX0Pnlxg/DoD57FX0rNiDlZk/W3p851FDff8u/4ebGqasEGUTs8+bD46Dq1r6hCR73u69A+CyVf9WSolMd021mKeTcH39l3E/u1OY/Hix/KI0bPr3NmGX53QpxNYfxcT9yu2np8+j9N46un3jXuueKxWvUy6F9WnXqo3D6nruT9r1YK7sOKBOSqMPoEB9J7pxN88f171+Z2RWQHPLsHgszjF9czhwWuI0+UDHseJVbhmFS5/6jFmYyNGRrPdtBNXW7YNDmEZfj1LUXa2HbF2J/FQhVs2bsHoaEo463zMCleFkY0PYfTi2oQfjAyfXU2xKtkpm1iPkQ804rs2n6IbZw+qMLtTwniNm5DynHeuQ3RVrT6wETuI/o2p93FgoorXAz9P9nuKdeLaO6/j6w+cSkz+6eILl/fv1Jun8Irr+xBR78M8PGErq71nTmP/fvVuNbaq3njq+2fhN5xGvR+7V09B71uv4hdexY6v+KnUV/eyP6cTjs+RU33mgI5j4d5vFwKeLlUr7sOPTr7jXBZySSNDOM1BZY7pKda21glme1EqdtxwWHaiDWgVoYMe7CuiuBk9ejRm1dS4fuTvhUTEwG5turVeAKGyYgpaN7U6OJfF8crTYpoEalenz9zIauJW4mbFWiVAjF6DzVyc0TRqOgo/u9oudAT1zKp38azHGSSucVUf+8vkSegUkom3osyTGEih0nTSvdH3mXmchsuQkR4mM8KJYGrfgjG2Bl0om9WCMY1OhmclAGSGmJvzdPs23DJRnxByiVvKc5ZV2HNpkBse/HXKlFAqX6/ilfKMiNZi9KotKHeKW17p4gdVrsU/xOX9W6beB+ees9lxeFYchG1JWzl7jnpnV6JR+zqk4zfcIAvnqgZOdTJOnfQidPzGTxo6VUekPKcXcq/PhoNwpMulvS5CR/hcdTT116x88s841af+n/3D3GdSqXZhkv5aCoTAslODpg3LUS1CZ/MeGFJHxE+RLDsiampq7tBHg3R1fYSzXbnfy9WyY6lzVXl1vtWJvXsHLSRG70FeKsMJ0aGnZ4XtsylvS8HbzyUwK1oRQoLVmzR7FDLF8F60inlckWoxMq0z8jf1nDtt1h/pqTymXmDjmhfR5uC8ZoXtPHMRtbPledXvtp9S97XSRPV0J8dxyfGlnoYndylR5hifYlGPMe0tGOnBeiGzmsoXV+D6rkdx9QN90o6b5UdbTG7EVA2khEhZrBNXX3wd1z+TGIqYEZGgvqZZjCxLkXzvU/f9Na59cEk/o80K4vrs3uPmiH5u1/ha2CxCyZaYKpVmD6k0k7/14dqWdfjarhN9p4tP9Dtk9q6Ty+Tg+5Bero0e72z5lvw+iHPtCvU+mB2C9PfWb7hBrHfY+V1Lw2f87PXSAfWclpVDLLtPqA6PMQPM6f62cDnXZ3as6xTLshPWdLFjxcGjhc+sh20Wdg+Y5dVjWQsJAbfsyMwrETpxdOzQQqfIiKARYWPHr9BxR1VcD8gLIOLiFfzK9gIIl068g1/svKi+jcW8+Q69IfV38bSXsdgnjF6Bup41Q2N7ZmFgvCDPW0JHiOOYNVVRUTvXZt1RAuoJLXTkRUka5vrkPF55+lUckF4DpqAxQ69NhI7ct9mYJmt/Od2EzjAhlhD534MDb1mFtE59+Fe3LpaL5ceymBgWl3fXI7Zxm27QhUu4/uZBx3uXNf7cFDoiVsRJOCF0BBVu/zb0b1Hi4kUXIZND3JwwnztDfA2UoNJCR0RRsoO3el55xnelwFTgu7XJFhq/6eIb9Q499UwbfuFQJuV9MN4vfB+32q2W6n1o1IIl9X24pN6HXyXehxT8hktC+7D1DeBT80Rm/MRPUVX5feN/qZfswzmXTryv66QpuDPN8pFnfTaUhD5drGsqsZaT39ZY3Hab/poR1QFdcZ9ZXr2WtZAQaLFjzbzq2deGI8a016HBLngKL3QUk/8c84yKS7zdzVNpnPgXY7iqcs6fq35tOqanvfr7knvx5Fpz+Mp4ETOKhwFXE/ilk9rxbcIPBu93mza7nul0uW4cr7wpL6v7cxqoXppnH4PhJOvQlEWVapTVf7FTqkE2z6Qyco62bvQlS09TJIkYWI/+DLOakp+hHqMXS7hOXM1klfnsuOvzWHHz55xcpaesu8dXKGtsNBygbyix4mb9udF5ynj+sgr7eJvfdMmPhNCerHr1qof+5NqVeG7rSmNmkGmFSWkgsr4PLvgNlyc5x88jFZUpDXMB6rOhJMzpIuvfmHW9d4vLpd4/6m8ZkJEBmdq+6xE8K+vr9F3M2nEOG4EVO4Mzr3ZgOHyQReAc/ocjhRc6glX5VczBs0YBc/rcAwf3UBuqR/jMaSVQxqJ29lhDUKQ7LPvANk5r9WZ6e78y/nfEGj/OML6bMXyAMAVKH77tzPKKW9PTXa0kWgylWUKs85341tFJVzX6ejZYkkiyrDJnT/pe48eKW2bLjBvepqxb1q6s6ZeGz3TJExmCeFIWrtz0CFrFJ018Kuy+bCl4eh8c8BsuX3KNn2A1jLWr78PCJKvWNDxpDMeoHO5N6bgUpD4bOsKaLjIcJWJMJnUUpK7PgFQTX5hfS4aAip0aLNKL6UTq1pgLCNo/4q8jf6xers81qRCFJxa7rL8Fk6r5Mt6rsVtkiA+sBrcXN7IZDzw7J6daQrKLBsfhMc8WJzdyiJsTnqase7yHY1x8pks+LLhv0Ole9WJlim/bM6/iKfWRKb7mcEaI8Ru/E3qIHKbzbKJR3qQbZdXQulopwkBI0yXhOylW8hx9mSyxnZFP3scvjOntrxrT/w3nab/r8wSUcMzGKjUsa4gquNb6Ca4fN+dceWl14TfWpkj47/jE6oU4jNNWVv5Af3MgQ7iCkMFiVFi8WS8Ey7/EzcpQpsVB2rXczifIU5S4ouPm0zLkzV/HC1W45T6zH5uUdkOeLlZvfAAHZIXYp98x/CnEh+NSkh+HMxnfhwz4DWfyFT433J28vA/5xU/CCcnZLQ62h/GUamjTSn0h6rMhIYzpEjFngam6Xiw6/p22B/D55/prRmy+S0NW9w4NARU7XdizeTM2u312dKgsUchsLOPc0DgvF4zEdMBaH0t5C9ZLexFtqvAf23vIcHCsXOI+bdLCeSx60JGu9/Q/J166hB+P63M6hyss6c6CRaFAzsnGLC1rNlKKJcYSSe4WEhfB1Wsely1+yBQFTkysN5/fCStuPjHjm01oXMINw6+uFt+90ziRht3J+prNp8d3uuSL6tn/3u50nyCCW/U3O4Pvg8s03snOC2H6DZdMHF98Kf/n8D7kGD8D1YmSoZID4sSb1CCnO9gmyLs+yxdVH8qw1K5Wb7t9hyZdVP261VxF2ZxY4kfoRPCjOTJE90d8MYT+YkGElp1hwXLsHYtlm1biyRXTUJX0Msg0yPvwnMsuswvXmqbTQSc1db3t4r+jx5SNc07Iejr6fvqMMYU8MS09xcP/k/ex3zDd6ue078mSKVxBOI8PrHs/dlfKOLk4FuZhxXIg95WTKzD6AZvAUGJjzMaXzenoZ6WGS7f8ZB2K0RaOtLVsEvtS1ap7rMPIiTbjsizeJ7uRr/ewBs2sRtxy5+BvZHHCW1qa3QWUgWVVqcVo2/XL7qxXz6EPNNdPi6slMHLVNoyx3Sexg7zhZN2HaykzxnynS74Y1lDbu6DeO5kO/JyUa8NRNQWr8ZKhjK3JvhtGOGtIIxW/4VI49mGOM3dyjZ/CHPIYi9tymjWVX32WL1UrZIFU83ulF2ERhnQRXyCjfpWlCrxNMXfEcpI+8y8lM4XcL+FZQdlOEdfZKTSZVlAeXMPGBdUDObA9ZXEp9VK6rUNhH9dN/pvZQxBh0qsqXedFscxpsemzRQbDOuMWbvB5vK4HkYa1dpA+TKawa0CMbHkZY2Y5rP/ihG0tmWTM8NdrpWFHyrXcVlQeJOPaPda6PfowFecVlC3sa/Skk23tHOu5UnEKZ6ajPkjDKX3zTBefZHz31HvXdhrGrs+dqSuVZyqTKlznl1NQ67QSst9wSagG0OPaU0WJn8ZtpWE/9dng+kNZyDCEk3rfTPVNKNLFw70sstWt1r3T4pMRXefrFfeLY7EfemjZGUZkZ9rmZw7jwJmUFTFl+wYZB346RejIS2AbvkrF2unWfWv/AZzarvdXMY0PBrLIYJtrJat6J09LmNPotIWRa8kY8lOrMlXOeSJOcyp9OlV62JFK5cDOUwXsqeToEyIbgmrrjUkfrr8rO6SbDbnzsE+eTrif7VbXX2/cNym8bMEg07VdhY4gm3iux7WkZ1YCSRbu25JdQNzY/2vH+NqHoiyut5u7w5tDWppYcvokk2e6+ETeldT3wGh0tC/HMbd76TIp7+wgg+/r3t7ksprAb7gkBvc6yuaf5z9+/4z9Sc+YjttKwznXZwXi0t7OlLrJnVCki+UHmTeDe6mF2qm8QITTshMisu6NNSRY1plsPUdCSLAp5rvspUcvDrPiR5LdqjDkaKt34Z8rnOliWs38lJPStOxQ7BSZVLGzu3qc/kYKQXPPFf2NkJuExDBHYYdyrevC49BI0MSO+Vy5bYvgiRCmS37PYglq8Qt9FUkr54cYip0iQ8sOIaTgiEPtanOl2zYZftGn8yIhogZUI3cIe1UjZ+/Vyz5eP2qsNTa0LLTPXN5Yz57X9GwXQpYultDJ5OeUjcQ1kghYnucIxU6RodghhBQFaYQfG4v921UDVKB32pPDsPi4pE6cGDZkL6d5eEJvcVAw4ZdCmNJFhMoTlZ0+p6oPIntkPTFHpWtibgLFDskAxQ4hJEzIdgorHpiCiopkR1lrtpGsURMcPw5zhlrFmcP4G9W4F/O5wpUuJBWKnSITDLFDCCGE3Lxw6jkhhBBCShqKnWFg0iTb6rKEEEIIKSoUO4QQQggpaSh2CCGEEFLSUOwQQgghpKSh2CGEEEJISUOxQwghhJCShmKHEEIIISUNxQ4hhBBCShqKHVKSlDVuQ7R9HUbqY0IIITcvAd8uogZNG5ajWh85Eu/AjrYjiOnDoOG0XYQsKvjpp9xFpXhU4ZaNWzAaB9G/cTdu6LMkREyuQvX8hzB3Ti3GVvSh85l1+D33dBtSIguaMf+BpZhqbQTZ14cLb/4ab59g3UXCBy07pASZiBFR9V/sCwqdsLFgHR7f9TIe37QF9y4RoSMne/FVkYWO7PD85Nq7lEwm0lmoXrsNzattQkeoqMDU1Vtw/wJ9TEiICIdlJ+DWm0zQsjMM3LkO0VW1uL7rUVz9QJ8jIaEKkcn6K+7C4k1LMfZMO154/rg+VxwWrm1F6+yLaFv1Do7pczcnVfjR1i2oVSJnQKX7u/uPI24ITSWAVvxcCVD1h76D2P30bnCLYxImgi12og1oXVOHSM8+bN7TpU+Gi5td7IjvTPli4NqWdfj6M3ViYj3G/KwRI6O6yxjrxNUXt+G6/C2FMiVaxtxXizKx0hj04fq7+3FNVcDJFht1zY22a2ZE3a9F3U8fYWIzytcvRdnZdsTanRpUPSQWTQmnyT1++nox635VGNn4EEYvVvE0f4Ab6lmuqr8V1iolvfWfY+7sCozVZwbOHMSH+3ej57Z1eHx1pctQkd9wMgyyDosfsKwzQh8uvLUfJ/eqBlSfyYhYeVbXYuCt9Xhpb3Hfl6ETO8HPB7Hq/PBDp+EqSwh14tCqbejRZwkJAxzGIkWlrEJq2F7cUI294TS8viVZlIiQSRM6Il5eRvkqu9ARKjBycQvKNzYnhIHBxFvV72zXzETq0FalCqv+u9HnoLYMMg+J5Ry/iXfhu+qccT8RWu1bMMYmdISyWS0Y01jAAZXJzfjpri2419ZQCmNnL8W9m7bh/rm16shhqChjuHXu4VT+3b/1ZTQroTLYwAoVmLqkBc1bmxHRZzIRqaw0/h/oLZGOQUjyoef5dZn9cvq+QL/+SkhYCLZlp6YJG5ZXI96xD8fH1WN5tfVqxhHv6cbxo0fQFfCxrZvbsmNzFH7nVkO8GFaLN48b4kD+PvJO4PoH9rRQQqddCQbLitNp/VYxsR63/KwFo5VYcB+i0uFj3pyTTctMhfv1Mlp+fMRPD7HdiPUpIVSBMsPy8zqufya/Ub9vUeJnlvrqamnKFdXg7WrBVPnadxCHtu9Gj24UjR6/NIRykDY0MRguYUHIKZy2Hpy0hkEUk+vxo8dajCGSCzsfVQ2qPu9C9dqXVQM/NM7JxbfshDcfBjGvOXYILG2EFJpQWHYidcttQkeIIFJdh+VrNqCpRp8iAURbRTAPY1ZVKkGxHv0yPJOwdFxKETpQjb0IHSUAtqzDVRmuSvxW8dlxfP3iQUPAlFW4WD7EyiP/e3RONi0zffjXXvM4jYyWn9zjV1ZhWisMS9S76xHbKENc1m/U798041coqtfqBlb8XlRjaDWUQvzENry0s9M8+PILW0M5GE78Nl563j3cwOn3HcJ14pASKG/LMIktHD45jt9vP4gB9XVsZTbLVT1+OFv913cK/2S/RkGYhid3tWK37dMq98IUtKacf7JAzrjhzYdBrGt+SKFDQkiwxU7XUXT09KBj3w7s2LwZm63Pjn3o0W929fImUO8EFEt4qIb9xi4lXlIa/nTq8V2xaqAWY9a/jGi7w0esLMZvXdDi5PppL1aRKnOYLHbK0WdIGDlHhghE7Dg8e87xs8SVWKaUMNrv/nv3YbUcmNyMuYZgUL3+LA6+Fz60/d0W7t0s4ZKHmLRAUfl376aXzVlVqR9xODZ+m4XJt5q/S2n8Q0mY80ETWbFNW9noq0PCScAtOzEc2bMHR7piyTOxYl3Y07YDHUYtWI0ZVDvBxLKKvLve26yoO+fnvQigKU4yWGrsaP8ZdyuQFkNu18s1fonrdeJbF2FUVjvPvKaTuMqRyPx5RoOW2uu3Y/rF9GHgc/NY8BsOC+ab1otCcJspdgZ6CyD60jiPX61qQ7Pt03ZGzsswVvL5X3ke4nEn1PmgEKHTvESGvIo/nEhIsQixg3IMH3WbVUD5OKMFIQHDEh7fdnpruK0hHvGfibVk/jhbRSwxYToMZ8Wzc7Kz5SfX+A1ez32ILeuwWg6UV5rXunDS7fmq8Bdz5DfJzq1+w1kOxeIH8sKqzJ9sPh/VhtNtpmcID+HNB5kBZgod8Zvy7ttDSPDgbCxSJHIUHjZc/XGyosXE2ZNpU8SdsMSVmxWlzLI0OYoTH/HLeD3Bf5r5Y6I5SyfX2TWT7zIXm3MJl4sfiDNV+MEE+d9phlEpEsB8mFyP+7fKDLBew++HFh0SdgIsdqJoaKgxZu46U4NFdabTcv+VMC43WOpkt2KkcqPPNGeU/eVdpi+MA2V3KkGgv6dh+dB4JJMVxZiltcry13FSHrnHL2G5cvUnyv2a2anA2Nv01ySk166dZh39Yiowdb5DY2nM5NH+Hinh4r1mQo6dc5fr1PLIgioP0859Nv6BJjz5ILO8frpJnukgdst6OhQ6pAQIrNiJNjyEurrlWNPahIaaaJLoidY0oKlV75kV78DRcK43WNrkOCvK4ANtkYkuNdbSGTnROGtQJtPOW0SAbMHoO/VJN2Y14hYliizMsOp6+jiZCox+oH5QJMmigLLGj0xHP9tnnMronJyT2HEXVwba8nPjH98viNjp7zWff+rqdahOrEosjVmz7rWbx6l+MT0fmjN8xi7Zgp+uqFdhZVVj1biu3WY0gjJlWUhyphVOnMQF+b9iqbGGS9I9dfjm1VswP9sMp2FwTv609yI6zwzgU31cSMKTD3rYarUS+WfauUoyKSkCvc5OtKEVa7T1xpF4D/a17UGQtc5Nu86OtZ7Mu5lnHaWhw7mReXVha7VjfZhC2lo6rvfqM1ZEvl6bsjqynZzjl3klZiHrmj85Y1vbJZW+Thw6XYl7tT9G6jCFucaNPrBhrPXSO881nLXqsRvGFgTP21fuHdyeIBtDsZJycSitfEhf04eQ4BNon53YkTZjmnlHTzz5xYrH0SPT0QMudG5msvnDuPLBNsS2tOO6LLpn48bZg7i65VFzHRt9Lp1L+HrjelzTFhmLG7JwnwqbJiDUva4m/VYWMmxHf4spbkxLjLP/TO7xG1rnZJPjePuZdnSescVRdq7euV41Vtv0EJGzX0zP849i986DuKDCDkgY1bgeekaJjeffxw8cnGITnNiGF9Q9L6gwdqRxPvTMoyq8vYEV9JCVB8K7knJp5cNQWtwIKRQB3wg0/HAjUFJaaCsFe/fDDPOBkFzgbCxCiGciKxqN4ZhMa7+Q4sN8ICQ3KHYIIYMYm05uw/0r6pNn61iOrUtkrINbBhQd5gMhBYXDWEWGw1gkVEgjm3ErgaHZmPOmh/lASEGh2CkyFDskfMgU5J9j7uyKwcZWnGNP78dJ2VRSnyLFhvlASKGg2CkyFDuEEELI8EKfHUIIIYSUNBQ7hBBCCClpKHaGAQ5hEUIIIUMHxQ4hhBBCShqKHUIIIYSUNBQ7hBBCCClpKHYIIYQQUtJQ7BBCCCGkpOGigkXGaVFBYeHaVrTO1gcYQG/fH7F/+zs4xuXfCSGEkIJCy04gGIvKiilo3XQfFuozhBBCCCkMobHsRGsasKh+Oqoj1h7AccR7juP1PV2I6TNBxM2yk8TkaVj52D1YVjGAA8+8gldo3SGEEEIKRggsO1E0tG7AmuV1NqEjRBCpXo41rU2oiepTYeWT8/j96QF9QAghhJBCEnixU9O0BnWiceI96Ni3A5s3b9afHdjXERfNg0CbdjxyqfeP+hshhBBCCkmwxU5NE5ZXy5ce7GvbgyNddlUTQ9eRNiV69qBLnwkzVZXf198IIYQQUkgCLXZqZhhKBz37SkPQZOeP+IL+OoQQQkhBCbDYqYGpdXrwsSidaA0amlqxYcMG89PaiqaGGoTdXYcQQgghxSX4DsrxK7gcbUDrmuWoq7Y5KEciqK5bjjVNNfpEKTAFrVvvwsLJ+pAQQggheTOiasrUjfp7sIjOxE/mTsKoP41C1cLpiMR7sO/v27D37ffw3nvvofurCai6PYJRkdsx4av38NFlHS5gfPPNn/S3zPzx4y9xeXIlbv2LqWi4ex4ebpyHH//ZRbz7sbfwhBBCCHEm+JadSASRnn3Y0bYHdv/kWNcetO3rMb5Xzygd606l/p8QQgghhSG4Yid2Bf3Glx7sc1s48PIVGEv2lY8Lv+/OgnlonT0W6LuItmdeRfOqNvxir4cFCQkhhBCSkQBbdi7jyk3U1ptTzwdwwNgfiyKHEEIIKRQBFjsxfNQtjX413EapondMN9YUjHd/VArrCio49ZwQQggpNIH22YkdOQ7xyqlenjrNPIqahlasMZdWRvdHpSF1gO/jVs7EIoQQQgpK8DcCrWlC6/Jqw4KTThw9+9qwJ8ArDnraCFRRtWIlnl0CbgRKCCGEFJjgz8aSWVc79qGjJ246I2viMhV9R7CFTi5wbyxCCCGkOATfshNyaNkhhBBChpfgW3ZuBiZPw4olY/UBIYQQQgoJLTtFxs2ys3BtK1pn6wOLvtN46un3cUkfEkIIISR/aNkJBAPoPXMabdspdAghhJBCQ8tOkfHqs0MIIYSQ4kDLDiGEEEJKGoodQgghhJQ0FDuEEEIIKWkodgghhBBS0lDsEEIIIaSkodghhBBCSElDsUMIIYSQkoZihxBCCCElDcUOIYQQQkoaih1CCCGElDQUO4QQQggpaYK7N1ZNEzYsr9YHWYh3YEfbEcT0YZDg3liEEELI8ELLDiGEEEJKmhDveh5FQ+sa1CG4Vh2Blh1CCCFkeAmtZaemSQmdSBwdrwdX6BBCCCFk+Aml2Ik2tELceXr2teEIlQ4hhBBCMhBCsVODRXURwyn5aJc+RQghhBDiQujETk3TclSDw1eEEEII8UbIxE4NZshs9Hg3PqLSIYQQQogHQiV2og31MLXOR7TqEEIIIcQTIRI7UdwxPaL+j6ObZh1CCCGEeCREYmc8xonWQT+uUOsQQgghxCPhETvRcSiX/+NXcNk4QQghhBCSnfCInfHjYBp2rtBfhxBCCCGeCY3YiY4z7DqIX6FdhxBCCCHeCZHPDiGEEEJI7oR4I9BwwI1ACSGEkOGFlh1CCCGElDQUO4QQQggpaSh2CCGEEFLSUOwQQgghpKSh2CGEEEJISUOxQwghhJCShmKHEEIIISUNxQ4hhBBCShqKHUIIIYSUNBQ7hBBCCClpKHYIIYQQUtJQ7BBCCCGkpKHYIYSQQjD5Ljy39T4s1IeECFUrVuK5tdP0ERkuuOt5kcl51/OJ9bjlgUZ8d1YFyvSpG2cP4mr7btzQxzcbI1u2YYxKjxtn29HfflyfJd6pwo+2bkFtRScOrdqGHn2WFJAF9+G51VNQ2XcRbdvfwbFP9Hly0yNi59klY4Ezh9H8/Hl9NlciWLhiHhrnqDJWoU9BlbVVqqzpI5IZWnaCxMRmlK9vwWib0BHKZi1F+cZ1GKmPw0hZ4zZE233EQaWJpIdQFr01KV2IVyZirCRh3xfoN0/kTGTFNjy+ax2q9XGpkVf8xKIjQkcan6cpdEgyl/a+gqfeGgBm34PnVkT02dxYuPYRtC6xCx2SK6EQO9GaBjS1tmLDhg3604rWpgbURPUPSoIq3PKzpUZjblgwWh5FTH/6d3Xi+j++juvmD0NIFUb+pXpLY1/kbp367H18G5MvfSoN3r9prVt5MflWqH4l8OUXyNHOqKnCX8xR+ZeHWAo2+cQvgpWPzVFCZwAHnimtXnbV5GlYuXYldu9qxW4OwygiSnSsxHOSHtZn60o8uSC7gBHB03YGqFxyL1ZO1ic9E8GtE8xvnTtfRfOqNv2hVScXAi92appasWZ5Haoj9gIVQaS6DsvXtKKhVATPxLvwXYmLHqqxN+o3PtiGq/sv6aMwMhEjJG5+xA4u4euNIvrWhTwNho/I/HmG2Lnwod8hQG0Z8i2Wgo7/+FWtuBfLVNjetw7hlRKx6Cxcazbkz266B8tmGzKZKOH35NZH0KrSo1KfMqgYi9rVj3gSg8eeP4xO9SYue+wuJa990Hcae0+U5hs4FARb7EQbUF8tIieOnn07sHnzZv3ZgX09kukR1C2qMX4adspq5xlWneunS9An5c75xvBVScYtBJQbtu8+DHxuHufMgvmYqv7zL5YCju/4TcMK8cVQjdDf7C2dRujT/YfRtlN/ZPjlZkeGKZXwq60YQOdbh/FUwrLShqd2XkSv/Gb2PXhygfHrDJzHXknPijlYkfW3pNAE20G5pgkbllcj3rEDbUeMsQwbUTS0rkFdpAf7Nu9Blz4bNNwdlOsxZmMjRkalIcpEJ662bBscwjL8epai7Gw7Yo7OulW4ZeMWjI6mhLPOx6xwVRjZ+BBGL661OUK342qKVclO2cR6jPTkPO01bkLKc965DtFVtfrARuwg+jd6cNKeqOL1wM+T/Z5inbj2zuv4+gMny1D+6eKHyIJmzH9gHqZWWGmkxMiZU/hw/270OFkIJjfjp5uWYuyZdrzwvHO+OzshJ5/vN+67VN3X/OtAXyc+3K5+n3TPety/tdH2bJlwdnoWH5jmJeqvz6zD7+Xak9U1H7NdU933UNp9hSpUr/055s6uMIfeFANnDprpcts6PL66cvCaKUTUPf6iUd0jJey7z+9OsdjkHz+DBfdh9+op6H3rVfzCq9iRoaHGWsyzWQh6+y7i1Jun8EqGXnuVutcTD2T22XB8Dpf77ffqRK3jmJ9zrQcCni5VK+7Dj06+42y9yyWNDOE0B5U5pqdY21onnMZTT78P2rf9EWIH5RiuFNiBYPTo0ZhVU+P6kb8XjIm3osyTGEih0nTSvdH3mXmchsuQkR4mM8KJYGrfgjG2Bl0om9WCMY1OBlYlAJQgcXWebt+GWybqE0IucUt5zrKKJCNxghse/HXKlFAqX6/ilfKMiNZi9KotKHeKW17p4pMF69C8WgSHPY1UAz17Ke7dtA33L3C4122m381Ar3u+Ozsh6/NnvsAPtr6s72v+RRhbUWvc80d2PwLx8fEkBBQufi6mNakXX6nGwXD+3dSSHF/5mtpwiKDbtQX32sSKkEiXuSKCzWsmIwJJiSt1j1qHsM27Ch8/YeFc1cBhAKdOehE6EdP/RQ8N2Ut5ZcUULFv9iKtlQPxEnhUHaI+PbCGzgNzu17qp1bezbGEJR7pc2usidITPB0zrjhc++Wec6lP/z/5h7ksUVIzFJP2V5E7Ap57brDc79qArybhTg6YNy1Ed78COtiNK+hQGETU1NXfoo0G6uj7C2a7c7Ufepp7XY0x7C0Z6sF7IrKbyxRW4vutRXP1An7TjZvnRFpMbMfWmKSFSFuvE1Rdfx/XPpJ8gYkZEgvqaZjGyLEXyvU/d99e49sEl/Yw2K4jrs3uPmyP6uV3ja2GzCCVbYqpUmj2k0kz+1odrW9bha7te8J0ufrEsLX24sPPXePuE1U+rQmTBQ1i8ulY11n1p1gvTUlKhwjyqwuiTdtwsP9Z548C850l1T6NUGtYWESHqu6vFSP1ml/pN30HsfjrVQuKGjiNUmDdvVQKrFgPq+u/uP464ESclTlQD1pOIu6DvI1/VvQ5tH7RwRZQ4NNNFkfYcVnrK95T4yX1WPIS5S1RY1+f3Ez9BNdJbH8GyCo/Tfy0rkGE9OIVjn1h3kinF96JVhsOcphJbVgNxgN55KGHlqFpwF55YLY7RLve3het8qxN7955PWAQMa4iIBMOp+pXMvka5WC38ENZ0sWPFwaOFz5yKjpzuYVh2Znssa8SRgFt2YjjSJv455Vi+ZoOegaVaXfVpaFVCR/2i53jhhI4ggkaEjR2/QsczYgmR/z048JYZPdI+/KtbV8LF8mNZTAyLy7vrEdu4TTfowiVcf/Og473LGn9uCh0RK+IknBA6ggq3fxv6tyhx8aKLkMkhbk6Yz50hvgZKUGmhI6Io2cFbPa8847vSnarAd2uTrSZ+0yVv+k4ZjfIgqoE+sQ0vrVqPQw7DNFn9blwsP5ZzsiESVq0zxFWiOv7kON7eflBV7YoJt6rmxQFfM7m0NQnzlEipVAJkPV5SQsoUOsKlFKEDVK/VQkdElxId9uEtI112dpoHKc8RWfFzU+g4xU/us1eFfabdEE+Oz+97ptoPcJtx3wF8ap7IzIl38NQzbfiFMTXdfqc4jumZOsD3cWvKTJ2qyu8b/3fuVA2jbTjn0on38YudF9W3KbgzzfKhhNgD0qCb4X5la9CFS+pZzLBjMW/+MFt3Qp8u1jWVWMvJb2ssbrtNf81IxBhCa5ytvnota8SR4A9jRcdjRrlZ8MwZWGuwQX3qIqbT8p4iaBC74Cm60BGyDk1ZVKlGWf0XO6UaZPNMKiPnaOtGX3JjYookEQPr0Z9hVlPyM9Rj9GIJ14mrmawynx13fR4rbv6ck6v0lHX3+ApljY2GA/QNJVbcrD83Ok8Zz19WYR9v85su+XAJX32p/qtYisVr6xFJm4aqGui03l4VfiBTT5VA+ieXnmC1McQjYic5DpZI6nRr7D/5whQ7bmgRlZPzriUgVNoO7DQFSEYmN2OuUZkrweJoXRok+TnqMX+JWT4PZbLKKFGXnqYaP/HzySXrGSZHsHDBXXhSpjFvNad2t0r8PTeAyVRUpjTMk/8c84xsl9k75qk0TvyLSjX1es75c1W6hpcwp4usfyOz8Tp3ere4XOr9o/6WAfHtMaa3P4JnZX2dvos4sJ3+OvkQbLEjDsprxILTg44dMhtrB3bs60BP3KzWymeMhzG6UgRE4Bz+hyPFFzoKU6D04dvOLEXZmp7uaiXRYijNEmKd78S3jk66qtHXs8GSRJJllTl70vcaP1bcMltm3PA2Zd2ydmVNvzR8pkue9Dy/HofO9GHs7BY0b3oZj+/ahvtXKOGj/56GqviMoSZX64MWQyoNki0/1nknPxdvmCIqx5lclpXprfXOQ24pWNangdPvuwqWSKVp4Ut6DktUnTnpe1VoX/HziQyxPLlVNWCbHkHr6jmoFZ+RCiMGrlgNY+3q+7Awye9oGp40hmPU0/empNpt2helYg6eNRpMp889MOXx8BPWdJHhKBFjvWcO41ceynk+SPX5hfmV+CTAYqcGTcurAcMnZw+OxGSwKoZY1xHsaWvD5h3H0V2+HGtam9Qvi0Msdll/KyZWg9uLG9mMB56dk1MtIdlFg+PwmGeLkxs5xM0JT1PWPd7DMS4+0yVvLinBsw4vPKNEz1udGEAFpi5RwscQPfk4J6dafizn5AxiIOMwjj+xZAmICye9CUTL+uT+e73oX+pzZE2XbOQvBj2z4D48Kw25EdWLxhTmtmdexVPqI1OYzeEaB068o/9mOs8mGmWZCi2nVUPraqUIAyFNF/sWEL/I0ZfJGoLLyCfv4xfG9PZXjen/hvO03/V5iEFwxU7NDMMnJ979kbNPTqwLR17vQDxSjeVNYV5rx5v1QrD8S9ysDGVaHKRdy+18gjxFiSs6bj4tQ978dbxQhVvuM/trSWk3bOmi+UT7lKx6VAmfdlzoE9Hz8+SZQwrTqpE+RGUR0evEpAkWLWQyiYHqRtN52XkYx4NYSqMYAsISc4VewdlP/Cy+wueGG5iXGTKWtUGcaVUj/vQ7hr+I+KhcSvJTccMcaEx+DfSaL6qhTSsV1uwgcSrW68G4foZ1KnMY08VcRVmEjlh0/DttD+BzT9ZEm+8SZ2PlReB9diLjxutvDowf5276DwsFck42ZmlZs5FSLDGWSHK3kLgIrl7zuGzxQ6YocGJivfn8Tlhx84kZ32xC4xJuGGq4Ft+90ziRht3J+prNp8d3uvimHveLn44+SkKchd8Ub4EKjE3xT8jknGzM0lpt5rurc7ILMsvpXsMnohP/4tQLtqw+OeFXmKTH20SmlWvn5VQx97npbzR2yUPue1pNzjQ86Cd+FnF8Ib5XDs6zrvRdxO8d14yJ4Fb9LY0F9xlDJQfEiTepQU53sE2QmN5c62NrgkIgqw2blhZPu32HJl3MGXiyirIx88qX0IngR3Ok1P0RXxTbmkiSCK7Y6frY7G1VL0drU41MwLIRNfbLapVhLkX8ylAMNxWH3FdOrsDoB2wCQ4mNMRtfNqejn5U3Od3yk3UoRls40taySexLVavusQ4jJ9qMqLJ4X8s2RNd7WINmViNuuXPwN7I44S0tze4CysCyqtRitO36ZXfWq+fQB5rrp82ZOiNXbcMY232MHeRlfSDDyboP11JmjPlOF59EVsiCdy1o3mqupZPUCMs08AdM0eJMBWobbQ23/F7WzZHp6GfMfHd2ThYxsAU/TfIJ0uvSaJF0YafLonkWsxvxI9vaP7J434/WNjsLjIzDYs7095rPP3X1OlTbGiFZePH+rbLujnmcZqH65H1cMILW4t6tEtaW9+q7xFHW91nsNDRoJ5f42Tj2YY4zdyrm4IkV01TqW0SM6c7PyRR2HcdUzCGPsbgtp1lTcbzypvlsyzatxJNyz6TGXaZ1q/vuui/3tV48ULWiVi8FAFR6ERZhSBfxBTKWGhiA7E/leRHJVCwn6TP/winkQ0zgV1AWQZOxOBd4nZ1Ck22dnZEtL2PMLIf1X5ywrSWTjBn+eq007Ei5ltuKyoNkXLvHWrdHH6bivIKyhX2NnnSyrZ1jPVcqTuHMdNQHaTilb57p4hNrvRxXzrQbM5KSSs0CWTnYOd9lPZ5/mi/XRMraPNZaN524oP61LyQ4SOpaP6nY17BJx3HNH/2s4pz80l6366ZiW2MnFVlp+XQl7k2LnyZpHaF0nFdQtvARvyRUAygOrX3ZV7ZN+Hg40XcRbadh7GrdubMt2dnVWnFXHzrhttJwxnsKKtyB7cmL5ZnrueiDTGQYwkm9b6b1Z0KRLh7uZZFtrR3r3mnxyYhe0wlcQTkfgj2M1bUHbTt2YF9HD/QErATxeA869u0ItNDJTo4+IbIhqLbemPTh+ruyQ7rZkDsP++TphPvZbnX99cZ9k8LLFgwyXdtV6Aiyied6XEt6ZiWQZOG+LdkFxI39v3aMr30oyuJ6u7k7vDmkpYklp08yeaaLT+J7xTG5HZ1n+rTHgclAnwiP9elCRzixzZi9NYj67VtKFK0yG3/TgpPqI2MOJw2cfh1vP23O/hq8n/quRICs55N5Wvgl/F6FlWe1I1tMHHrGWQhk8y9y5jje1mmSwEqPp7fp4TAXH6BPdptrE6Wkp4ikTmN9n0wLBeYev2QG9zp6IstqxLLrtbGPUlI2qkZV+6occytjn/wz9p9JilkabisNyz2bnzmMAyp80uX7tF+Luq/nhfNy4NJelfbJSepKKNLFmsWVN4N7qYXaqTykBHwF5fDjbQVlQkg40b3uihxX3fWElx69OMyKH0l2q8KQsyC3lYW9E850Ma1mfsoJLTuFIPAOyoQQElzieGX7afQafiAF9oHR/h29p/85QwMXx6e9mS0cw4XpV+N177AcCGG6yPCVKbwO+RfEFbJbei4+SsQOxQ4hhOSDrIkiQzGy5svWwjv9Vi65F0+qRi7VzbpKdu7W06Bz366gyEy+C0/Ic53pLMpQmRCWdEn4CMmaPL6eJY7fnzaFW+3qRwbXFCqSg3mpwmGsIsNhLEJuEsSR9bGx2L9d9nnS5/LEk8NwqkPtsCJ7Oc1TQsfc4qBN/G70XwpJmNJFxM4TlZ0+p6oPIntkPTHHvss7NwbNBYqdIkOxQwjJB9lOYcUDU1BRkewoa802kjVqguPHYc5QqzhzGH/jtLBfAQlXupDhhmKnyFDsEEIIIcMLfXYIIYQQUtJQ7AwDkyalutQRQgghpFhQ7BBCCCGkpKHYIYQQQkhJQ7FDCCGEkJKGYocQQgghJQ3FDiGEEEJKGoodQgghhJQ0FDuEEEIIKWkodkhJUta4DdH2dRipjwkhhNy8hGC7iChqmh5CfXUE1ub28XgPuo8fxZGumD4TXJy2i5BFBT/9lLu2FI8q3LJxC0bjIPo37sYNfZaEiMlVqJ7/EObOqcXYij50PrMOvw/ERpc3D5EFzZj/wFJMtTae7OvDhTd/jbdPsO4i4SPYYifagNY1dQmRk0q8Zx/a9nTpo2BCsTMc1GNMewtGnm1HrP24PkdCwYJ1eHx1rT6w6MShVdvQo49IsVFCc+3Pce/sxPbaSVzY+agSPPqAkJAwomrK1I36e8CIouE/P4jpo0xR8/ev78Xbb7+H9957D93dX+F7Vbcr0XA77hjRjVMXr+kwweObb/6kvw0yZsz3cfXqH/URKTh3rsD3/7IS19/57/j2C32OhIPP+nDhzD/g3FH5XMOtd1fjfzlzAO988Kn+ASkuVfjR1i2o+4vvYeBMOw5s/+84+j9ex8n9nbj6ZzPww2nfw9jKP8OFfziH9JpNM/kuPPnUUjzxv8/Dj//sIt792PWXhAwZwbXs1DRhw/JqQAmdzY7Wmxo0bViOatXf27d5D4Jq37nZLTviO1O+GLi2ZR2+/kydmFiPMT9rxMio7jXGVCX64jZcl7+lUHbnOoy5rxZlUX0Cfbj+7n5c2388ZWhKXXOj7ZoZUfdrUffTR5jYjPL1S1HmagXSQ2LRlHCa3OOnrxez7leFkY0PYfRiFU/zB7ihnuWq+lthh9/M3vpc1Vsfq88MnDmID/fvRs9tYk2pdBkq8htOhkHWYfEDMgylT6j8u/DWfpzcexzpb4UD2soz8NZ6vLS3VN6X4OdD9dpt+OGHTsNVphCqrchsaVu4thWts/UBBnDgmVfwCocgyTATeAfl+JXL+lsqXTjaIa9qNWbUmGdI8CirkBq2FzdUY284Da9vSRYlImTShI6Il5dRvsoudIQKjFzcgvKNzQlhYDDxVvU72zUzEfsiWURUqrDqvxt9DmrLYCJGyDOkhtPkHL+Jd+G76pxxPxFa7VswxiZ0hLJZLRjTWMDNYic346e7thjDElZDKYydvRT3btqG++fKsFEvvkptkDKGW+ceTuXf/VtfRrMSKoMNrFCBqUta0Ly12XVo2k6kstL4f6C3RIROSPKh5/l1mf1y+r5Av/5KSFgIvNiJjBuvv6USxfhx5rfycUktIgkMVaZYEaFw5zqUL64wrBb9Wx5FrEU+63F11+sp1hLtbxMVK479t+qzpR3XxCc9uhSj7zR/bfDZbvRbv2lpN68XO2g7Z/ukOCyXVZgN6o0+l8pdhJT87yh2fMRPiyv85c9Ni5JYfrasH/z9WeNX6rkmml/yRjV4m5aajWTfQRx65lG8sMr87N7ZqfrdquGTXnhaAzYYTiwI6eFq3cPtasHUCrEetGO3LdwLz7Sjs0/9pGIp5i8wf52J8kppofsw8Ll5HG7Cmw+DTDRE08Dp9zNa5o7tP21eX9H71iFadUggCK7Y6frYNJNWL0drQ43RQbaI1jSgqXUNlld76R+S4UNbRTAPY1ZV4vqu9eiX4ZmEpeMSrn+QLDJGtiihI0NNW9bhqgxX2a0inx3H1y8eNERHWYWL5SOjOEnHtMz04V97zeM0Mlp+co+fJa4MS9S7SuRslCEu6zfq92+a8SsU1WtVgydfzrTjhad3o8fW8MRPbMNLqsE0+PKLpAbMCid+Gy897x4uteEzw3WqRnkd3pZhEntD98lx/H77QdVAA2Mrs1mu6vFDoxE/hX8qeGM5DU/uasVuD58ncxID7oQ3HwaxrvlhtiHFT97Hr55uQ/OqNvxibyZZRMjQEWDLjjVMBUTqlmPNhg3YoD9rltehOhJHTw9fpEBjCQ/VsN/YpcRLSsOfTj2+O0v+r8WY9S8j2u7wEWuI8VsXtDi5ftrLLCzLMnPK0WdIGDnHnBnkaPnJOX6WuFLPJ8Jov/vv3YfVcmByM+YaguEgdj+fOT0ufGj7uy3cu1nCJQ8xaYGi8u/eTS/j8V0OH8u6kY3Jt5q/S2n8Q0mY80ETWbEN986WJQA4K46Ek0APY8WOtGHHvg70xO3VXdyYnbVjRxv2fMyR40BjWUXeXa+EgHkqI3fOz3sRQFOcZLDU2NH+M+5WIC2G3K6Xa/wS1+vEty7CqKx2nnlNt2G1HIjMn2cOf2QYdjD9YpKHivyGw4L5pvWiENxmip2B3gKIvjTO41erTMtDts+vCjDFOtT5oBCh07xEppxzrSMSXgLvsxPrOoI9bW3YvHmz/rQZa+vEYkDNjGrjN/1Xgr+44M2IJTy+7fTWcFtDPNd3WT4v7h9nq4glJkyH4axkHKISLOdkZ8tPrvEbvJ77EFvWYbUcsHxeLpx0e74q/MUc+U2yc6vfcJZDsazDkvAPcflkm11VbTjdZnqG8BDefJAZYKbQkZleXFuHhJnAix13amBqnThcJ2yRYSRH4WHD1R8nK1pMnD2ZNkXciWzOyWWWpSmTc3Iu8ct4PcF/mvnDdDhNd27NwuS7zFV1XcLl4gfiTBV+MEH+d5phVIoEMB8m1+P+rTIDrNfw+6FFh4Sd0IqdaEM9DK3TcxxHaNgJINmtGKnc6DPNGWV/eZfpC+NA2Z1KEOjvaVg+NB7JZEUx1s9ZZfnrOCmP3OOXsFy5+hPlfs3sVGDsbfprEtJr106zjn4xFZg636GxVI3gjx7T/h4p4eK9ZkKOnXOX69TyyIIqD9POfTb+gSY8+SDr8vx0kzzTQeyW9XRyFjrT8ORW08H7ubXT9DlChpdAi52apg3Y0NqEmqjR3TWJ1qChqRVr6uRVjaPjaLC3i7hpyXFWlMEH2iITXWqspTPSNvu6bGI9bmkRAbIledq5E7MacYsSRRZmWHU9fZxMBUY/UD8okmRRQFnjZ3EFrp81589mdE7OSey4iysDbfm58Y/vF0Ts9Peazz919TpUTza+GsieR2av3TxO9Yvp+dCc4TN2yRb8dIXqVExWDaM0rmu3GY1grURDkeRMK5w4iQvyf8VSYw2XpHvq8M2rt2Sf7lxKzsmK8OSDHraS7TrOtGP307t9pX/VitrEs1XOrsVK2/0JGS4CvDeWuQGo+/TyOHr2tSHgW2PdvCso37kO0VW1hvNupllHaehwbmReXdha7VgfpiC+QEmOxK736jNWRL5em7I6sp2c45d5JWbBXI1ZiazU5/SNXmtFHyXR14lDpytxr/bHSB2mqF77cqIRtmOs2ts7zzWc895Wg8gUaplZNPhWWKvy6sMMhHcl5dLKB2NWWQYhVLViJZ5dYshVg963XuUUdDLsBNiyE0PXHms2lj5lYJuNRaNOYMm6WJ8bH2wzFg+8HtOrkmlunD2Iq1seNdex0efSuYSvN67HNW2RsbhhLNznICDUva4m/VYvZNhiihvTEuPsP5N7/IbWOdnkON6WBeTO2OIoO1fvXK8aq216iMjZL6bneVm07iAuqLADEsZY0E6Jjeffxw8cnGITnNhmLFp3QYWxYy2I91JSAyvoISsPhHcl5dLKh2wWt0t7OxOLChISFIK963kJwF3PSWmhrRRZevek2IQgHxbch92rp9CyQwJBiGdjEUKGmsiKRmM4JtPaL6T4hCEfqiq/r/4dwKmTLClk+KHYIYQMYmw6uQ33r6hPnq1jObYukbEOD1sGkPwIez5MvgtPiN/OmU7ujUUCAYexigyHsUiokEY241YCsmUA110pOqHNhwiqVsxTQmcKKvsuou3pd3BM/4WQ4YRip8hQ7JDwIVOQf465sysGG1txjj29HydlU0l9ihSbMOaDbLJ6DyrOHMbfPH8erOVIUKDYKTIUO4QQQsjwQp8dQgghhJQ0FDuEEEIIKWkodoYBDmERQgghQwfFDiGEEEJKGoodQgghhJQ0FDuEEEIIKWkodgghhBBS0lDsEEIIIaSk4aKCRcZpUUFh4dpWtM7WBxhAb98fsX/7OzjGZfgJIYSQgkLLTiAYi8qKKWjddB8W6jOEEEIIKQxDbtmJRmtwx6J61FVHgJ592LynS//FnWhNAxbV10GCmMTR03EcR490IabPBBU3y04Sk6dh5WP3YFnFAA488wp3CSaEEEIKyJBZdmqaNmDDhg1Ys2a5KXQ8Em1oxZrldqEjRFBdtxxrWhsQ1WdCzSfn8fvTA/qAEEIIIYVkRNWUqRv196LynfhX+OyzbnR3q0//ONw+aRTQ3433Prqsf+FAtAH/+cHpGGVYcv4er+96G2+/9x7e6/4KE6puRyQyCXMnfJX5GsPMN9/8SX/LzB/HTsTDtSPRc/Qczl3VJwkhhBCSN0Nm2YnFutDVpT9X+vXZzNQsqoMYdOIdr2PPkdjgkJW61p62feiR79X1aCgB805V5ff1N0IIIYQUkgA7KNdgRrX834PjSuik04WjHeIPE8G48eaZ8PNHfEF/HUIIIaSgBFfsRMehXP7v+VjJmkHsRpyYthCVjysJzx1CCCGEFIHgip3x48whrCuWP04NmsTBWX1arXGry1dg2HZKxrQzBa1b78LCyfqQEEIIIXkT4GGsFGpmwBjVUpSOuBnk0t5DaDszgN6KOWjd1Irdu1rx3Arvs9YIIYQQ4kzgxU5C2HQdheGiIzOzPs6+Nk9YqdT/E0IIIaQwBFfs6CGqQWI40rYZmze3IbEOYdpQV4hZMA+ts8cCfRfR9syraF7Vhl/s9bAgISGEEEIyElyxE7sCw/24egZqjBPpRMcZLszovxL0dZSzY049H8ABY38sihxCCCGkUAR4GKsLH5sL6aDecSGdGiyqE7tOD0pnVItTzwkhhJBCE2ifna6jHeZsq7o1aG2oGZx2Hq1BU+ty02E5ZWp6uPk+buVMLEIIIaSgDMlGoLIv1nJrKlUmHDYGNfbGMiw4DsQ7sKPtSKA3A/W0EaiiasVKPLsE3AiUEEIIKTCBn40VO9KGHfs60BO3iwbZK2tf4IVOLlzq/aP+RgghhJBCMiSWnZsZWnYIIYSQ4SXwlp2bgsnTsGLJWH1ACCGEkEJCy06RcbPsLFzbitbZ+sCi7zSeevp9XNKHhBBCCMkfWnYCwQB6z5xG23YKHUIIIaTQ0LJTZLz67BBCCCGkONCyQwghhJCShmKHEEIIISUNh7GKTOow1u5drfpbbsjGoIQQQgjJHVp2CCGEEFLSUOwQQgghpKSh2CGEEEJISUOxQwghhJCShmKHEEIIISUNxQ4hhBBCShqKHUIIIYSUNMMjdib8O+b/R/2ZoM95wW84QgghhNy0DM2igiJSov+O2Xf8O/7j7cm3ix0bgU2HvqOPUvAbLkBwUUFCCCFkeBkay07037Dq4X9LEyxZ8RuOEEIIIURDnx1CCCGElDRDI3b+5wi0/t9l+jMC/1OfzorfcIQQQgghGlp2CCGEEFLSUOwQQgghpKSh2CGEEEJISUOxQwghhJCShmKHEEIIISUNxQ4hhBBCShqKHUIIIYSUNBQ7hBBCCClpir831oR/wzP/578hqg/T+Q5itu2j3nl+BE7KF7/hAgb3xiKEEEKGlwBYdv4d0Yj10ac84TccIYQQQm4mOIxFCCGEkJKm+MNYNzkcxiKEEEKGF1p2CCGEEFLSUOwQQgghpKSh2CGEEEJISUOxQwghhJCShmKHEEIIISUNxQ4hhBBCShpOPS8yqVPPCSGEEDK00LJDCCGEkJKGYocQQgghJQ3FDiGEEEJKGoodQgghhJQ0FDuEEEIIKWGA/x+aSIPkSxZAawAAAABJRU5ErkJggg==;" vertex="1" parent="1">
          <mxGeometry x="1630" y="790" width="571" height="352" as="geometry" />
        </mxCell>
      </root>
    </mxGraphModel>
  </diagram>
</mxfile>
